<svg xmlns="http://www.w3.org/2000/svg" width="900" height="600" viewBox="0 0 900 600" role="img" aria-label="기본 여행지 이미지">
  <defs>
    <linearGradient id="sky" x1="0" x2="1" y1="0" y2="1">
      <stop offset="0%" stop-color="#dbeafe"/>
      <stop offset="52%" stop-color="#ecfeff"/>
      <stop offset="100%" stop-color="#fef3c7"/>
    </linearGradient>
  </defs>
  <rect width="900" height="600" fill="url(#sky)"/>
  <circle cx="710" cy="130" r="56" fill="#f59e0b" opacity="0.85"/>
  <path d="M0 420L145 285L260 385L395 235L560 418L700 315L900 470V600H0Z" fill="#0f766e" opacity="0.85"/>
  <path d="M0 482L170 360L310 470L445 330L620 505L760 405L900 520V600H0Z" fill="#155e75" opacity="0.88"/>
  <path d="M72 500C170 452 250 452 348 500C460 555 570 555 690 500C760 468 824 462 900 484V600H0V540C24 526 48 512 72 500Z" fill="#ffffff" opacity="0.7"/>
  <text x="450" y="548" text-anchor="middle" fill="#334155" font-family="Arial, sans-serif" font-size="32" font-weight="700">SLAP Travel</text>
</svg>
